<mxfile host="65bd71144e">
    <diagram id="sXKOGoSicNG50cS6SoY7" name="Page-1">
        <mxGraphModel dx="3160" dy="617" grid="1" gridSize="10" guides="1" tooltips="1" connect="1" arrows="1" fold="1" page="1" pageScale="1" pageWidth="827" pageHeight="1169" math="0" shadow="0">
            <root>
                <mxCell id="0"/>
                <mxCell id="1" parent="0"/>
                <mxCell id="2" value="brand_id" style="ellipse;whiteSpace=wrap;html=1;align=center;" vertex="1" parent="1">
                    <mxGeometry x="20" y="110" width="100" height="40" as="geometry"/>
                </mxCell>
                <mxCell id="3" value="brand_name" style="ellipse;whiteSpace=wrap;html=1;align=center;" vertex="1" parent="1">
                    <mxGeometry x="20" y="50" width="100" height="40" as="geometry"/>
                </mxCell>
                <mxCell id="4" value="Brand" style="whiteSpace=wrap;html=1;align=center;" vertex="1" parent="1">
                    <mxGeometry x="20" y="200" width="100" height="40" as="geometry"/>
                </mxCell>
                <mxCell id="5" value="" style="endArrow=classic;html=1;exitX=0.5;exitY=1;exitDx=0;exitDy=0;" edge="1" parent="1" source="3">
                    <mxGeometry width="50" height="50" relative="1" as="geometry">
                        <mxPoint x="180" y="260" as="sourcePoint"/>
                        <mxPoint x="70" y="110" as="targetPoint"/>
                    </mxGeometry>
                </mxCell>
                <mxCell id="6" value="" style="endArrow=classic;html=1;exitX=0.5;exitY=1;exitDx=0;exitDy=0;" edge="1" parent="1" source="2">
                    <mxGeometry width="50" height="50" relative="1" as="geometry">
                        <mxPoint x="180" y="260" as="sourcePoint"/>
                        <mxPoint x="70" y="200" as="targetPoint"/>
                    </mxGeometry>
                </mxCell>
                <mxCell id="7" value="customer" style="whiteSpace=wrap;html=1;align=center;" vertex="1" parent="1">
                    <mxGeometry x="20" y="280" width="100" height="40" as="geometry"/>
                </mxCell>
                <mxCell id="13" value="account" style="whiteSpace=wrap;html=1;align=center;" vertex="1" parent="1">
                    <mxGeometry x="10" y="545" width="100" height="40" as="geometry"/>
                </mxCell>
                <mxCell id="18" value="" style="fontSize=12;html=1;endArrow=ERzeroToMany;startArrow=none;entryX=0.5;entryY=0;entryDx=0;entryDy=0;" edge="1" parent="1" source="14" target="13">
                    <mxGeometry width="100" height="100" relative="1" as="geometry">
                        <mxPoint x="60" y="320" as="sourcePoint"/>
                        <mxPoint x="160" y="220" as="targetPoint"/>
                    </mxGeometry>
                </mxCell>
                <mxCell id="14" value="makes" style="shape=rhombus;perimeter=rhombusPerimeter;whiteSpace=wrap;html=1;align=center;" vertex="1" parent="1">
                    <mxGeometry y="400" width="120" height="60" as="geometry"/>
                </mxCell>
                <mxCell id="19" value="" style="fontSize=12;html=1;endArrow=none;startArrow=ERzeroToOne;entryX=0.5;entryY=0;entryDx=0;entryDy=0;" edge="1" parent="1" target="14">
                    <mxGeometry width="100" height="100" relative="1" as="geometry">
                        <mxPoint x="60" y="320" as="sourcePoint"/>
                        <mxPoint x="250" y="420" as="targetPoint"/>
                    </mxGeometry>
                </mxCell>
                <mxCell id="24" style="edgeStyle=none;html=1;" edge="1" parent="1" source="20" target="13">
                    <mxGeometry relative="1" as="geometry"/>
                </mxCell>
                <mxCell id="20" value="pk_account_Id" style="ellipse;whiteSpace=wrap;html=1;align=center;fontStyle=4;" vertex="1" parent="1">
                    <mxGeometry x="100" y="460" width="100" height="40" as="geometry"/>
                </mxCell>
                <mxCell id="69" style="edgeStyle=none;html=1;entryX=1;entryY=0.25;entryDx=0;entryDy=0;" edge="1" parent="1" source="22" target="13">
                    <mxGeometry relative="1" as="geometry"/>
                </mxCell>
                <mxCell id="22" value="first_name" style="ellipse;whiteSpace=wrap;html=1;align=center;" vertex="1" parent="1">
                    <mxGeometry x="150" y="500" width="100" height="40" as="geometry"/>
                </mxCell>
                <mxCell id="70" style="edgeStyle=none;html=1;entryX=1;entryY=0.75;entryDx=0;entryDy=0;" edge="1" parent="1" source="23" target="13">
                    <mxGeometry relative="1" as="geometry"/>
                </mxCell>
                <mxCell id="23" value="last_name" style="ellipse;whiteSpace=wrap;html=1;align=center;" vertex="1" parent="1">
                    <mxGeometry x="160" y="540" width="100" height="40" as="geometry"/>
                </mxCell>
                <mxCell id="26" value="product_catalog" style="whiteSpace=wrap;html=1;align=center;" vertex="1" parent="1">
                    <mxGeometry x="-350" y="280" width="100" height="40" as="geometry"/>
                </mxCell>
                <mxCell id="27" value="" style="edgeStyle=entityRelationEdgeStyle;fontSize=12;html=1;endArrow=ERzeroToMany;startArrow=none;entryX=0;entryY=0.5;entryDx=0;entryDy=0;exitX=1;exitY=0.5;exitDx=0;exitDy=0;" edge="1" parent="1" source="25" target="7">
                    <mxGeometry width="100" height="100" relative="1" as="geometry">
                        <mxPoint x="-290" y="410" as="sourcePoint"/>
                        <mxPoint x="-190" y="310" as="targetPoint"/>
                    </mxGeometry>
                </mxCell>
                <mxCell id="25" value="browse" style="whiteSpace=wrap;html=1;align=center;" vertex="1" parent="1">
                    <mxGeometry x="-160" y="280" width="100" height="40" as="geometry"/>
                </mxCell>
                <mxCell id="28" value="" style="edgeStyle=entityRelationEdgeStyle;fontSize=12;html=1;endArrow=none;startArrow=ERzeroToOne;entryX=0;entryY=0.5;entryDx=0;entryDy=0;exitX=1;exitY=0.5;exitDx=0;exitDy=0;" edge="1" parent="1" source="26" target="25">
                    <mxGeometry width="100" height="100" relative="1" as="geometry">
                        <mxPoint x="-250" y="300" as="sourcePoint"/>
                        <mxPoint x="20" y="300" as="targetPoint"/>
                    </mxGeometry>
                </mxCell>
                <mxCell id="29" value="products&lt;br&gt;" style="whiteSpace=wrap;html=1;align=center;" vertex="1" parent="1">
                    <mxGeometry x="-350" y="430" width="100" height="40" as="geometry"/>
                </mxCell>
                <mxCell id="31" value="" style="fontSize=12;html=1;endArrow=ERoneToMany;startArrow=none;exitX=0.43;exitY=0.988;exitDx=0;exitDy=0;exitPerimeter=0;entryX=0.5;entryY=0;entryDx=0;entryDy=0;" edge="1" parent="1" source="30" target="29">
                    <mxGeometry width="100" height="100" relative="1" as="geometry">
                        <mxPoint x="-290" y="410" as="sourcePoint"/>
                        <mxPoint x="-190" y="310" as="targetPoint"/>
                    </mxGeometry>
                </mxCell>
                <mxCell id="30" value="contains" style="shape=rhombus;perimeter=rhombusPerimeter;whiteSpace=wrap;html=1;align=center;" vertex="1" parent="1">
                    <mxGeometry x="-360" y="340" width="120" height="60" as="geometry"/>
                </mxCell>
                <mxCell id="32" value="" style="fontSize=12;html=1;endArrow=none;startArrow=ERoneToMany;exitX=0.43;exitY=0.988;exitDx=0;exitDy=0;exitPerimeter=0;entryX=0.5;entryY=0;entryDx=0;entryDy=0;" edge="1" parent="1" source="26" target="30">
                    <mxGeometry width="100" height="100" relative="1" as="geometry">
                        <mxPoint x="-307" y="319.52" as="sourcePoint"/>
                        <mxPoint x="-300" y="430" as="targetPoint"/>
                    </mxGeometry>
                </mxCell>
                <mxCell id="38" value="" style="edgeStyle=none;html=1;" edge="1" parent="1" source="34" target="29">
                    <mxGeometry relative="1" as="geometry"/>
                </mxCell>
                <mxCell id="34" value="PK product_Id" style="ellipse;whiteSpace=wrap;html=1;align=center;fontStyle=4;" vertex="1" parent="1">
                    <mxGeometry x="-470" y="520" width="100" height="40" as="geometry"/>
                </mxCell>
                <mxCell id="48" value="" style="edgeStyle=none;html=1;" edge="1" parent="1" source="35" target="29">
                    <mxGeometry relative="1" as="geometry"/>
                </mxCell>
                <mxCell id="35" value="product_name" style="ellipse;whiteSpace=wrap;html=1;align=center;" vertex="1" parent="1">
                    <mxGeometry x="-393" y="565" width="100" height="40" as="geometry"/>
                </mxCell>
                <mxCell id="49" style="edgeStyle=none;html=1;entryX=1;entryY=1;entryDx=0;entryDy=0;" edge="1" parent="1" source="36" target="29">
                    <mxGeometry relative="1" as="geometry">
                        <mxPoint x="-240" y="480" as="targetPoint"/>
                    </mxGeometry>
                </mxCell>
                <mxCell id="36" value="product_category" style="ellipse;whiteSpace=wrap;html=1;align=center;" vertex="1" parent="1">
                    <mxGeometry x="-260" y="570" width="100" height="40" as="geometry"/>
                </mxCell>
                <mxCell id="50" style="edgeStyle=none;html=1;" edge="1" parent="1" source="37" target="29">
                    <mxGeometry relative="1" as="geometry"/>
                </mxCell>
                <mxCell id="37" value="product_price" style="ellipse;whiteSpace=wrap;html=1;align=center;" vertex="1" parent="1">
                    <mxGeometry x="-320" y="610" width="100" height="40" as="geometry"/>
                </mxCell>
                <mxCell id="45" style="edgeStyle=none;html=1;entryX=0;entryY=0.25;entryDx=0;entryDy=0;" edge="1" parent="1" source="39" target="26">
                    <mxGeometry relative="1" as="geometry"/>
                </mxCell>
                <mxCell id="39" value="fk_product _id" style="ellipse;whiteSpace=wrap;html=1;align=center;fontStyle=4;" vertex="1" parent="1">
                    <mxGeometry x="-513" y="240" width="100" height="40" as="geometry"/>
                </mxCell>
                <mxCell id="46" value="" style="edgeStyle=none;html=1;" edge="1" parent="1" source="41" target="26">
                    <mxGeometry relative="1" as="geometry"/>
                </mxCell>
                <mxCell id="41" value="fk_brand _id" style="ellipse;whiteSpace=wrap;html=1;align=center;fontStyle=4;" vertex="1" parent="1">
                    <mxGeometry x="-513" y="280" width="100" height="40" as="geometry"/>
                </mxCell>
                <mxCell id="47" style="edgeStyle=none;html=1;entryX=0;entryY=0.75;entryDx=0;entryDy=0;" edge="1" parent="1" source="42" target="26">
                    <mxGeometry relative="1" as="geometry"/>
                </mxCell>
                <mxCell id="42" value="fk_supplier _id" style="ellipse;whiteSpace=wrap;html=1;align=center;fontStyle=4;" vertex="1" parent="1">
                    <mxGeometry x="-513" y="320" width="100" height="40" as="geometry"/>
                </mxCell>
                <mxCell id="43" value="" style="edgeStyle=entityRelationEdgeStyle;fontSize=12;html=1;endArrow=ERoneToMany;startArrow=none;exitX=1;exitY=0.5;exitDx=0;exitDy=0;" edge="1" parent="1" source="8">
                    <mxGeometry width="100" height="100" relative="1" as="geometry">
                        <mxPoint x="-80" y="320" as="sourcePoint"/>
                        <mxPoint x="20" y="220" as="targetPoint"/>
                    </mxGeometry>
                </mxCell>
                <mxCell id="8" value="contain" style="shape=rhombus;perimeter=rhombusPerimeter;whiteSpace=wrap;html=1;align=center;" vertex="1" parent="1">
                    <mxGeometry x="-230" y="190" width="120" height="60" as="geometry"/>
                </mxCell>
                <mxCell id="44" value="" style="edgeStyle=entityRelationEdgeStyle;fontSize=12;html=1;endArrow=none;startArrow=ERoneToMany;" edge="1" parent="1" target="8">
                    <mxGeometry width="100" height="100" relative="1" as="geometry">
                        <mxPoint x="-250" y="279" as="sourcePoint"/>
                        <mxPoint x="20" y="220" as="targetPoint"/>
                    </mxGeometry>
                </mxCell>
                <mxCell id="51" value="supplier" style="whiteSpace=wrap;html=1;align=center;" vertex="1" parent="1">
                    <mxGeometry x="-650" y="410" width="100" height="40" as="geometry"/>
                </mxCell>
                <mxCell id="53" style="edgeStyle=none;html=1;entryX=0.5;entryY=1;entryDx=0;entryDy=0;" edge="1" parent="1" source="52" target="51">
                    <mxGeometry relative="1" as="geometry"/>
                </mxCell>
                <mxCell id="52" value="PK_supplier_Id" style="ellipse;whiteSpace=wrap;html=1;align=center;fontStyle=4;" vertex="1" parent="1">
                    <mxGeometry x="-600" y="490" width="100" height="40" as="geometry"/>
                </mxCell>
                <mxCell id="56" value="" style="edgeStyle=none;html=1;entryX=0;entryY=1;entryDx=0;entryDy=0;" edge="1" parent="1" source="55" target="51">
                    <mxGeometry relative="1" as="geometry"/>
                </mxCell>
                <mxCell id="55" value="supplier_name" style="ellipse;whiteSpace=wrap;html=1;align=center;" vertex="1" parent="1">
                    <mxGeometry x="-710" y="490" width="100" height="40" as="geometry"/>
                </mxCell>
                <mxCell id="59" value="" style="fontSize=12;html=1;endArrow=ERmany;startArrow=none;exitX=1;exitY=0.5;exitDx=0;exitDy=0;entryX=0;entryY=0.5;entryDx=0;entryDy=0;" edge="1" parent="1" source="58" target="29">
                    <mxGeometry width="100" height="100" relative="1" as="geometry">
                        <mxPoint x="-400" y="460" as="sourcePoint"/>
                        <mxPoint x="-300" y="360" as="targetPoint"/>
                    </mxGeometry>
                </mxCell>
                <mxCell id="58" value="provides" style="shape=rhombus;perimeter=rhombusPerimeter;whiteSpace=wrap;html=1;align=center;" vertex="1" parent="1">
                    <mxGeometry x="-513" y="410" width="120" height="60" as="geometry"/>
                </mxCell>
                <mxCell id="60" value="" style="fontSize=12;html=1;endArrow=none;startArrow=ERmany;exitX=1;exitY=0.5;exitDx=0;exitDy=0;entryX=0;entryY=0.5;entryDx=0;entryDy=0;" edge="1" parent="1" source="51" target="58">
                    <mxGeometry width="100" height="100" relative="1" as="geometry">
                        <mxPoint x="-550" y="430" as="sourcePoint"/>
                        <mxPoint x="-350" y="450" as="targetPoint"/>
                    </mxGeometry>
                </mxCell>
                <mxCell id="62" value="" style="edgeStyle=entityRelationEdgeStyle;fontSize=12;html=1;endArrow=ERzeroToMany;startArrow=none;exitX=0;exitY=0.5;exitDx=0;exitDy=0;entryX=1;entryY=0.5;entryDx=0;entryDy=0;" edge="1" parent="1" source="61" target="29">
                    <mxGeometry width="100" height="100" relative="1" as="geometry">
                        <mxPoint x="-220" y="460" as="sourcePoint"/>
                        <mxPoint x="-120" y="360" as="targetPoint"/>
                    </mxGeometry>
                </mxCell>
                <mxCell id="61" value="chooses" style="shape=rhombus;perimeter=rhombusPerimeter;whiteSpace=wrap;html=1;align=center;" vertex="1" parent="1">
                    <mxGeometry x="-170" y="450" width="120" height="60" as="geometry"/>
                </mxCell>
                <mxCell id="63" value="" style="edgeStyle=entityRelationEdgeStyle;fontSize=12;html=1;endArrow=none;startArrow=ERmandOne;exitX=0;exitY=0.5;exitDx=0;exitDy=0;entryX=1;entryY=0.5;entryDx=0;entryDy=0;" edge="1" parent="1" source="13" target="61">
                    <mxGeometry width="100" height="100" relative="1" as="geometry">
                        <mxPoint x="10" y="565" as="sourcePoint"/>
                        <mxPoint x="-250" y="450" as="targetPoint"/>
                    </mxGeometry>
                </mxCell>
                <mxCell id="65" value="cart" style="whiteSpace=wrap;html=1;align=center;" vertex="1" parent="1">
                    <mxGeometry x="40" y="930" width="100" height="40" as="geometry"/>
                </mxCell>
                <mxCell id="66" value="" style="fontSize=12;html=1;endArrow=ERmandOne;startArrow=none;exitX=0.5;exitY=0;exitDx=0;exitDy=0;" edge="1" parent="1" source="64">
                    <mxGeometry width="100" height="100" relative="1" as="geometry">
                        <mxPoint x="-30" y="685" as="sourcePoint"/>
                        <mxPoint x="70" y="585" as="targetPoint"/>
                    </mxGeometry>
                </mxCell>
                <mxCell id="64" value="adds products" style="shape=rhombus;perimeter=rhombusPerimeter;whiteSpace=wrap;html=1;align=center;" vertex="1" parent="1">
                    <mxGeometry x="40" y="810" width="120" height="60" as="geometry"/>
                </mxCell>
                <mxCell id="67" value="" style="fontSize=12;html=1;endArrow=none;startArrow=ERmandOne;exitX=0.5;exitY=0;exitDx=0;exitDy=0;" edge="1" parent="1" source="65" target="64">
                    <mxGeometry width="100" height="100" relative="1" as="geometry">
                        <mxPoint x="50" y="760" as="sourcePoint"/>
                        <mxPoint x="70" y="585" as="targetPoint"/>
                    </mxGeometry>
                </mxCell>
                <mxCell id="68" value="address" style="whiteSpace=wrap;html=1;align=center;" vertex="1" parent="1">
                    <mxGeometry x="280" y="610" width="100" height="40" as="geometry"/>
                </mxCell>
                <mxCell id="73" style="edgeStyle=none;html=1;entryX=0.75;entryY=0;entryDx=0;entryDy=0;" edge="1" parent="1" source="72" target="68">
                    <mxGeometry relative="1" as="geometry"/>
                </mxCell>
                <mxCell id="72" value="Pk address_Id" style="ellipse;whiteSpace=wrap;html=1;align=center;fontStyle=4;" vertex="1" parent="1">
                    <mxGeometry x="340" y="520" width="100" height="40" as="geometry"/>
                </mxCell>
                <mxCell id="76" style="edgeStyle=none;html=1;" edge="1" parent="1" source="75" target="68">
                    <mxGeometry relative="1" as="geometry"/>
                </mxCell>
                <mxCell id="75" value="street" style="ellipse;whiteSpace=wrap;html=1;align=center;" vertex="1" parent="1">
                    <mxGeometry x="400" y="560" width="100" height="40" as="geometry"/>
                </mxCell>
                <mxCell id="78" value="" style="edgeStyle=none;html=1;" edge="1" parent="1" source="77" target="68">
                    <mxGeometry relative="1" as="geometry"/>
                </mxCell>
                <mxCell id="77" value="house_number" style="ellipse;whiteSpace=wrap;html=1;align=center;" vertex="1" parent="1">
                    <mxGeometry x="420" y="600" width="100" height="40" as="geometry"/>
                </mxCell>
                <mxCell id="82" style="edgeStyle=none;html=1;" edge="1" parent="1" source="80" target="68">
                    <mxGeometry relative="1" as="geometry"/>
                </mxCell>
                <mxCell id="80" value="door_number" style="ellipse;whiteSpace=wrap;html=1;align=center;" vertex="1" parent="1">
                    <mxGeometry x="420" y="645" width="100" height="40" as="geometry"/>
                </mxCell>
                <mxCell id="83" style="edgeStyle=none;html=1;entryX=0.913;entryY=1.009;entryDx=0;entryDy=0;entryPerimeter=0;" edge="1" parent="1" source="81" target="68">
                    <mxGeometry relative="1" as="geometry"/>
                </mxCell>
                <mxCell id="81" value="zip_code" style="ellipse;whiteSpace=wrap;html=1;align=center;" vertex="1" parent="1">
                    <mxGeometry x="420" y="685" width="100" height="40" as="geometry"/>
                </mxCell>
                <mxCell id="85" style="edgeStyle=none;html=1;entryX=0.75;entryY=1;entryDx=0;entryDy=0;" edge="1" parent="1" source="84" target="68">
                    <mxGeometry relative="1" as="geometry"/>
                </mxCell>
                <mxCell id="84" value="FK_accound_Id" style="ellipse;whiteSpace=wrap;html=1;align=center;fontStyle=4;" vertex="1" parent="1">
                    <mxGeometry x="420" y="730" width="100" height="40" as="geometry"/>
                </mxCell>
                <mxCell id="87" value="" style="fontSize=12;html=1;endArrow=ERmandOne;startArrow=none;exitX=1;exitY=0;exitDx=0;exitDy=0;entryX=0;entryY=0.5;entryDx=0;entryDy=0;" edge="1" parent="1" source="86" target="68">
                    <mxGeometry width="100" height="100" relative="1" as="geometry">
                        <mxPoint x="90" y="600" as="sourcePoint"/>
                        <mxPoint x="190" y="500" as="targetPoint"/>
                    </mxGeometry>
                </mxCell>
                <mxCell id="86" value="has" style="shape=rhombus;perimeter=rhombusPerimeter;whiteSpace=wrap;html=1;align=center;" vertex="1" parent="1">
                    <mxGeometry x="150" y="675" width="120" height="60" as="geometry"/>
                </mxCell>
                <mxCell id="88" value="" style="edgeStyle=entityRelationEdgeStyle;fontSize=12;html=1;endArrow=none;startArrow=ERmandOne;exitX=0.75;exitY=1;exitDx=0;exitDy=0;entryX=0;entryY=0.5;entryDx=0;entryDy=0;" edge="1" parent="1" source="13" target="86">
                    <mxGeometry width="100" height="100" relative="1" as="geometry">
                        <mxPoint x="85" y="585" as="sourcePoint"/>
                        <mxPoint x="280" y="630" as="targetPoint"/>
                    </mxGeometry>
                </mxCell>
                <mxCell id="89" value="payment_info" style="whiteSpace=wrap;html=1;align=center;" vertex="1" parent="1">
                    <mxGeometry x="-640" y="710" width="100" height="40" as="geometry"/>
                </mxCell>
                <mxCell id="91" style="edgeStyle=none;html=1;entryX=0.25;entryY=0;entryDx=0;entryDy=0;" edge="1" parent="1" source="90" target="89">
                    <mxGeometry relative="1" as="geometry"/>
                </mxCell>
                <mxCell id="90" value="PK_payment_Id" style="ellipse;whiteSpace=wrap;html=1;align=center;fontStyle=4;" vertex="1" parent="1">
                    <mxGeometry x="-780" y="640" width="100" height="40" as="geometry"/>
                </mxCell>
                <mxCell id="93" value="" style="edgeStyle=none;html=1;" edge="1" parent="1" source="92" target="89">
                    <mxGeometry relative="1" as="geometry"/>
                </mxCell>
                <mxCell id="92" value="card_numbers" style="ellipse;whiteSpace=wrap;html=1;align=center;" vertex="1" parent="1">
                    <mxGeometry x="-710" y="605" width="100" height="40" as="geometry"/>
                </mxCell>
                <mxCell id="95" style="edgeStyle=none;html=1;" edge="1" parent="1" source="94" target="89">
                    <mxGeometry relative="1" as="geometry"/>
                </mxCell>
                <mxCell id="94" value="ccv" style="ellipse;whiteSpace=wrap;html=1;align=center;" vertex="1" parent="1">
                    <mxGeometry x="-613" y="600" width="100" height="40" as="geometry"/>
                </mxCell>
                <mxCell id="98" style="edgeStyle=none;html=1;" edge="1" parent="1" source="96" target="89">
                    <mxGeometry relative="1" as="geometry"/>
                </mxCell>
                <mxCell id="96" value="card_first_name" style="ellipse;whiteSpace=wrap;html=1;align=center;" vertex="1" parent="1">
                    <mxGeometry x="-520" y="610" width="100" height="40" as="geometry"/>
                </mxCell>
                <mxCell id="99" style="edgeStyle=none;html=1;entryX=1;entryY=0.5;entryDx=0;entryDy=0;" edge="1" parent="1" source="97" target="89">
                    <mxGeometry relative="1" as="geometry"/>
                </mxCell>
                <mxCell id="97" value="card_last_name" style="ellipse;whiteSpace=wrap;html=1;align=center;" vertex="1" parent="1">
                    <mxGeometry x="-493" y="645" width="100" height="40" as="geometry"/>
                </mxCell>
                <mxCell id="101" value="" style="edgeStyle=none;html=1;" edge="1" parent="1" source="100" target="89">
                    <mxGeometry relative="1" as="geometry"/>
                </mxCell>
                <mxCell id="100" value="FK_&lt;br&gt;card_processor_id" style="ellipse;whiteSpace=wrap;html=1;align=center;fontStyle=4;" vertex="1" parent="1">
                    <mxGeometry x="-810" y="680" width="110" height="50" as="geometry"/>
                </mxCell>
                <mxCell id="102" value="" style="edgeStyle=entityRelationEdgeStyle;fontSize=12;html=1;endArrow=ERzeroToMany;startArrow=none;exitX=0;exitY=0.5;exitDx=0;exitDy=0;entryX=1;entryY=0.75;entryDx=0;entryDy=0;" edge="1" parent="1" source="103" target="89">
                    <mxGeometry width="100" height="100" relative="1" as="geometry">
                        <mxPoint x="-330" y="850" as="sourcePoint"/>
                        <mxPoint x="-230" y="750" as="targetPoint"/>
                    </mxGeometry>
                </mxCell>
                <mxCell id="103" value="has" style="shape=rhombus;perimeter=rhombusPerimeter;whiteSpace=wrap;html=1;align=center;" vertex="1" parent="1">
                    <mxGeometry x="-310" y="670" width="120" height="60" as="geometry"/>
                </mxCell>
                <mxCell id="104" value="" style="fontSize=12;html=1;endArrow=none;startArrow=ERmandOne;exitX=0;exitY=1;exitDx=0;exitDy=0;" edge="1" parent="1" source="13">
                    <mxGeometry width="100" height="100" relative="1" as="geometry">
                        <mxPoint x="10" y="585" as="sourcePoint"/>
                        <mxPoint x="-190" y="700" as="targetPoint"/>
                    </mxGeometry>
                </mxCell>
                <mxCell id="105" value="order" style="whiteSpace=wrap;html=1;align=center;" vertex="1" parent="1">
                    <mxGeometry x="-370" y="860" width="100" height="40" as="geometry"/>
                </mxCell>
                <mxCell id="107" value="" style="edgeStyle=entityRelationEdgeStyle;fontSize=12;html=1;endArrow=ERoneToMany;startArrow=none;entryX=1;entryY=0.5;entryDx=0;entryDy=0;exitX=0;exitY=0.5;exitDx=0;exitDy=0;" edge="1" parent="1" source="106" target="105">
                    <mxGeometry width="100" height="100" relative="1" as="geometry">
                        <mxPoint x="-170" y="820" as="sourcePoint"/>
                        <mxPoint x="-70" y="720" as="targetPoint"/>
                    </mxGeometry>
                </mxCell>
                <mxCell id="106" value="added to" style="shape=rhombus;perimeter=rhombusPerimeter;whiteSpace=wrap;html=1;align=center;" vertex="1" parent="1">
                    <mxGeometry x="-180" y="870" width="120" height="60" as="geometry"/>
                </mxCell>
                <mxCell id="108" value="" style="edgeStyle=entityRelationEdgeStyle;fontSize=12;html=1;endArrow=none;startArrow=ERmandOne;entryX=1;entryY=0.5;entryDx=0;entryDy=0;exitX=0;exitY=0.5;exitDx=0;exitDy=0;" edge="1" parent="1" source="65" target="106">
                    <mxGeometry width="100" height="100" relative="1" as="geometry">
                        <mxPoint x="20" y="960" as="sourcePoint"/>
                        <mxPoint x="-270" y="880" as="targetPoint"/>
                    </mxGeometry>
                </mxCell>
                <mxCell id="109" value="shipping_details" style="whiteSpace=wrap;html=1;align=center;" vertex="1" parent="1">
                    <mxGeometry x="-160" y="1020" width="100" height="40" as="geometry"/>
                </mxCell>
                <mxCell id="111" value="" style="edgeStyle=none;html=1;" edge="1" parent="1" source="110" target="109">
                    <mxGeometry relative="1" as="geometry"/>
                </mxCell>
                <mxCell id="110" value="PK_shipping_Id" style="ellipse;whiteSpace=wrap;html=1;align=center;fontStyle=4;" vertex="1" parent="1">
                    <mxGeometry x="-210" y="1180" width="100" height="40" as="geometry"/>
                </mxCell>
                <mxCell id="113" style="edgeStyle=none;html=1;entryX=1;entryY=1;entryDx=0;entryDy=0;" edge="1" parent="1" source="112" target="109">
                    <mxGeometry relative="1" as="geometry">
                        <mxPoint x="-150" y="1040" as="targetPoint"/>
                    </mxGeometry>
                </mxCell>
                <mxCell id="112" value="FK_order_Id" style="ellipse;whiteSpace=wrap;html=1;align=center;" vertex="1" parent="1">
                    <mxGeometry x="-130" y="1210" width="100" height="40" as="geometry"/>
                </mxCell>
                <mxCell id="115" value="" style="edgeStyle=none;html=1;" edge="1" parent="1" source="114" target="109">
                    <mxGeometry relative="1" as="geometry"/>
                </mxCell>
                <mxCell id="114" value="FK_address_Id" style="ellipse;whiteSpace=wrap;html=1;align=center;" vertex="1" parent="1">
                    <mxGeometry x="-50" y="1180" width="100" height="40" as="geometry"/>
                </mxCell>
                <mxCell id="117" style="edgeStyle=none;html=1;entryX=0.105;entryY=0.988;entryDx=0;entryDy=0;entryPerimeter=0;" edge="1" parent="1" source="116" target="109">
                    <mxGeometry relative="1" as="geometry"/>
                </mxCell>
                <mxCell id="116" value="FK_distributor_id" style="ellipse;whiteSpace=wrap;html=1;align=center;" vertex="1" parent="1">
                    <mxGeometry x="-300" y="1220" width="100" height="40" as="geometry"/>
                </mxCell>
                <mxCell id="119" value="" style="fontSize=12;html=1;endArrow=ERmandOne;startArrow=none;entryX=0.5;entryY=1;entryDx=0;entryDy=0;exitX=0.5;exitY=0;exitDx=0;exitDy=0;" edge="1" parent="1" source="118" target="105">
                    <mxGeometry width="100" height="100" relative="1" as="geometry">
                        <mxPoint x="-340" y="950" as="sourcePoint"/>
                        <mxPoint x="-240" y="850" as="targetPoint"/>
                    </mxGeometry>
                </mxCell>
                <mxCell id="118" value="contains" style="shape=rhombus;perimeter=rhombusPerimeter;whiteSpace=wrap;html=1;align=center;" vertex="1" parent="1">
                    <mxGeometry x="-330" y="990" width="120" height="60" as="geometry"/>
                </mxCell>
                <mxCell id="120" value="" style="fontSize=12;html=1;endArrow=none;startArrow=ERmandOne;entryX=1;entryY=0.5;entryDx=0;entryDy=0;exitX=0;exitY=0.75;exitDx=0;exitDy=0;" edge="1" parent="1" source="109" target="118">
                    <mxGeometry width="100" height="100" relative="1" as="geometry">
                        <mxPoint x="-280" y="1050" as="sourcePoint"/>
                        <mxPoint x="-320" y="900" as="targetPoint"/>
                    </mxGeometry>
                </mxCell>
                <mxCell id="122" value="invoice" style="whiteSpace=wrap;html=1;align=center;" vertex="1" parent="1">
                    <mxGeometry x="-780" y="800" width="100" height="40" as="geometry"/>
                </mxCell>
                <mxCell id="123" value="" style="edgeStyle=entityRelationEdgeStyle;fontSize=12;html=1;endArrow=ERmandOne;exitX=0;exitY=0.5;exitDx=0;exitDy=0;entryX=1;entryY=0.25;entryDx=0;entryDy=0;startArrow=none;" edge="1" parent="1" source="121" target="122">
                    <mxGeometry width="100" height="100" relative="1" as="geometry">
                        <mxPoint x="-640" y="950" as="sourcePoint"/>
                        <mxPoint x="-540" y="850" as="targetPoint"/>
                    </mxGeometry>
                </mxCell>
                <mxCell id="121" value="generate" style="shape=rhombus;perimeter=rhombusPerimeter;whiteSpace=wrap;html=1;align=center;" vertex="1" parent="1">
                    <mxGeometry x="-560" y="780" width="120" height="60" as="geometry"/>
                </mxCell>
                <mxCell id="124" value="" style="edgeStyle=entityRelationEdgeStyle;fontSize=12;html=1;endArrow=none;exitX=0;exitY=0.5;exitDx=0;exitDy=0;entryX=1;entryY=0.25;entryDx=0;entryDy=0;" edge="1" parent="1" source="105" target="121">
                    <mxGeometry width="100" height="100" relative="1" as="geometry">
                        <mxPoint x="-370" y="880" as="sourcePoint"/>
                        <mxPoint x="-650" y="1050" as="targetPoint"/>
                    </mxGeometry>
                </mxCell>
                <mxCell id="125" value="customer" style="whiteSpace=wrap;html=1;align=center;" vertex="1" parent="1">
                    <mxGeometry x="-1120" y="810" width="100" height="40" as="geometry"/>
                </mxCell>
                <mxCell id="127" value="" style="fontSize=12;html=1;endArrow=ERmandOne;startArrow=none;entryX=0;entryY=0.5;entryDx=0;entryDy=0;" edge="1" parent="1" source="126" target="122">
                    <mxGeometry width="100" height="100" relative="1" as="geometry">
                        <mxPoint x="-730" y="1120" as="sourcePoint"/>
                        <mxPoint x="-630" y="1020" as="targetPoint"/>
                    </mxGeometry>
                </mxCell>
                <mxCell id="126" value="sent to" style="shape=rhombus;perimeter=rhombusPerimeter;whiteSpace=wrap;html=1;align=center;" vertex="1" parent="1">
                    <mxGeometry x="-940" y="800" width="120" height="60" as="geometry"/>
                </mxCell>
                <mxCell id="128" value="" style="edgeStyle=entityRelationEdgeStyle;fontSize=12;html=1;endArrow=none;startArrow=ERmandOne;entryX=0;entryY=0.5;entryDx=0;entryDy=0;" edge="1" parent="1" source="125" target="126">
                    <mxGeometry width="100" height="100" relative="1" as="geometry">
                        <mxPoint x="-613" y="1220" as="sourcePoint"/>
                        <mxPoint x="-700" y="1080" as="targetPoint"/>
                    </mxGeometry>
                </mxCell>
                <mxCell id="130" value="distibutor" style="whiteSpace=wrap;html=1;align=center;" vertex="1" parent="1">
                    <mxGeometry x="350" y="1030" width="100" height="40" as="geometry"/>
                </mxCell>
                <mxCell id="131" value="" style="edgeStyle=entityRelationEdgeStyle;fontSize=12;html=1;endArrow=ERmandOne;startArrow=none;exitX=1;exitY=0.5;exitDx=0;exitDy=0;" edge="1" parent="1" source="129" target="130">
                    <mxGeometry width="100" height="100" relative="1" as="geometry">
                        <mxPoint x="150" y="1150" as="sourcePoint"/>
                        <mxPoint x="250" y="1050" as="targetPoint"/>
                    </mxGeometry>
                </mxCell>
                <mxCell id="129" value="sent to" style="shape=rhombus;perimeter=rhombusPerimeter;whiteSpace=wrap;html=1;align=center;" vertex="1" parent="1">
                    <mxGeometry x="120" y="1010" width="120" height="60" as="geometry"/>
                </mxCell>
                <mxCell id="132" value="" style="edgeStyle=entityRelationEdgeStyle;fontSize=12;html=1;endArrow=none;startArrow=ERmandOne;exitX=1;exitY=0.5;exitDx=0;exitDy=0;" edge="1" parent="1" source="109" target="129">
                    <mxGeometry width="100" height="100" relative="1" as="geometry">
                        <mxPoint x="-110" y="1030" as="sourcePoint"/>
                        <mxPoint x="320" y="1050" as="targetPoint"/>
                    </mxGeometry>
                </mxCell>
                <mxCell id="134" value="" style="edgeStyle=none;html=1;" edge="1" parent="1" source="133" target="130">
                    <mxGeometry relative="1" as="geometry"/>
                </mxCell>
                <mxCell id="133" value="PK_distributor:ID" style="ellipse;whiteSpace=wrap;html=1;align=center;fontStyle=4;" vertex="1" parent="1">
                    <mxGeometry x="350" y="1100" width="100" height="40" as="geometry"/>
                </mxCell>
                <mxCell id="136" style="edgeStyle=none;html=1;entryX=0.93;entryY=1.092;entryDx=0;entryDy=0;entryPerimeter=0;" edge="1" parent="1" source="135" target="130">
                    <mxGeometry relative="1" as="geometry"/>
                </mxCell>
                <mxCell id="135" value="distributor_name" style="ellipse;whiteSpace=wrap;html=1;align=center;" vertex="1" parent="1">
                    <mxGeometry x="460" y="1070" width="100" height="40" as="geometry"/>
                </mxCell>
                <mxCell id="139" value="payment_status" style="whiteSpace=wrap;html=1;align=center;" vertex="1" parent="1">
                    <mxGeometry x="-513" y="1000" width="100" height="40" as="geometry"/>
                </mxCell>
                <mxCell id="141" value="" style="edgeStyle=none;html=1;" edge="1" parent="1" source="140" target="139">
                    <mxGeometry relative="1" as="geometry"/>
                </mxCell>
                <mxCell id="140" value="PK_paystatus_Id" style="ellipse;whiteSpace=wrap;html=1;align=center;fontStyle=4;" vertex="1" parent="1">
                    <mxGeometry x="-440" y="1050" width="100" height="40" as="geometry"/>
                </mxCell>
                <mxCell id="143" style="edgeStyle=none;html=1;" edge="1" parent="1" source="142" target="139">
                    <mxGeometry relative="1" as="geometry"/>
                </mxCell>
                <mxCell id="142" value="Fk_payment_Id" style="ellipse;whiteSpace=wrap;html=1;align=center;" vertex="1" parent="1">
                    <mxGeometry x="-540" y="1080" width="100" height="40" as="geometry"/>
                </mxCell>
                <mxCell id="146" value="" style="edgeStyle=entityRelationEdgeStyle;fontSize=12;html=1;endArrow=ERmandOne;exitX=0;exitY=1;exitDx=0;exitDy=0;entryX=0.607;entryY=-0.012;entryDx=0;entryDy=0;entryPerimeter=0;startArrow=none;" edge="1" parent="1" source="144" target="139">
                    <mxGeometry width="100" height="100" relative="1" as="geometry">
                        <mxPoint x="-560" y="980" as="sourcePoint"/>
                        <mxPoint x="-460" y="880" as="targetPoint"/>
                    </mxGeometry>
                </mxCell>
                <mxCell id="144" value="updates" style="ellipse;whiteSpace=wrap;html=1;align=center;" vertex="1" parent="1">
                    <mxGeometry x="-493" y="920" width="100" height="40" as="geometry"/>
                </mxCell>
                <mxCell id="147" value="" style="edgeStyle=entityRelationEdgeStyle;fontSize=12;html=1;endArrow=none;exitX=0;exitY=1;exitDx=0;exitDy=0;entryX=0.607;entryY=-0.012;entryDx=0;entryDy=0;entryPerimeter=0;" edge="1" parent="1" source="105" target="144">
                    <mxGeometry width="100" height="100" relative="1" as="geometry">
                        <mxPoint x="-370" y="900" as="sourcePoint"/>
                        <mxPoint x="-452.29999999999995" y="999.52" as="targetPoint"/>
                    </mxGeometry>
                </mxCell>
                <mxCell id="148" value="card_proccess&lt;br&gt;or" style="whiteSpace=wrap;html=1;align=center;" vertex="1" parent="1">
                    <mxGeometry x="-910" y="940" width="100" height="40" as="geometry"/>
                </mxCell>
                <mxCell id="150" value="" style="edgeStyle=entityRelationEdgeStyle;fontSize=12;html=1;endArrow=ERmandOne;startArrow=none;exitX=1;exitY=0.25;exitDx=0;exitDy=0;" edge="1" parent="1" source="149" target="105">
                    <mxGeometry width="100" height="100" relative="1" as="geometry">
                        <mxPoint x="-700" y="870" as="sourcePoint"/>
                        <mxPoint x="-600" y="770" as="targetPoint"/>
                    </mxGeometry>
                </mxCell>
                <mxCell id="149" value="payment proccesed" style="shape=rhombus;perimeter=rhombusPerimeter;whiteSpace=wrap;html=1;align=center;" vertex="1" parent="1">
                    <mxGeometry x="-720" y="870" width="120" height="60" as="geometry"/>
                </mxCell>
                <mxCell id="151" value="" style="edgeStyle=entityRelationEdgeStyle;fontSize=12;html=1;endArrow=none;startArrow=ERmandOne;exitX=1;exitY=0.25;exitDx=0;exitDy=0;" edge="1" parent="1" source="148" target="149">
                    <mxGeometry width="100" height="100" relative="1" as="geometry">
                        <mxPoint x="-810" y="950" as="sourcePoint"/>
                        <mxPoint x="-370" y="880" as="targetPoint"/>
                    </mxGeometry>
                </mxCell>
                <mxCell id="153" value="" style="edgeStyle=none;html=1;" edge="1" parent="1" source="152" target="148">
                    <mxGeometry relative="1" as="geometry"/>
                </mxCell>
                <mxCell id="152" value="PK_proccessor_Id" style="ellipse;whiteSpace=wrap;html=1;align=center;fontStyle=4;" vertex="1" parent="1">
                    <mxGeometry x="-1060" y="950" width="100" height="40" as="geometry"/>
                </mxCell>
                <mxCell id="155" style="edgeStyle=none;html=1;" edge="1" parent="1" source="154" target="148">
                    <mxGeometry relative="1" as="geometry"/>
                </mxCell>
                <mxCell id="154" value="proccessor_name" style="ellipse;whiteSpace=wrap;html=1;align=center;" vertex="1" parent="1">
                    <mxGeometry x="-1020" y="1010" width="100" height="40" as="geometry"/>
                </mxCell>
                <mxCell id="158" value="" style="edgeStyle=entityRelationEdgeStyle;fontSize=12;html=1;endArrow=ERmandOne;startArrow=none;exitX=1;exitY=0.75;exitDx=0;exitDy=0;entryX=0;entryY=0.75;entryDx=0;entryDy=0;" edge="1" parent="1" source="159" target="139">
                    <mxGeometry width="100" height="100" relative="1" as="geometry">
                        <mxPoint x="-610" y="1120" as="sourcePoint"/>
                        <mxPoint x="-510" y="1020" as="targetPoint"/>
                    </mxGeometry>
                </mxCell>
                <mxCell id="159" value="updates" style="shape=rhombus;perimeter=rhombusPerimeter;whiteSpace=wrap;html=1;align=center;" vertex="1" parent="1">
                    <mxGeometry x="-760" y="990" width="120" height="60" as="geometry"/>
                </mxCell>
                <mxCell id="160" value="" style="edgeStyle=entityRelationEdgeStyle;fontSize=12;html=1;endArrow=none;startArrow=ERmandOne;exitX=1;exitY=0.75;exitDx=0;exitDy=0;entryX=0;entryY=0.75;entryDx=0;entryDy=0;" edge="1" parent="1" source="148" target="159">
                    <mxGeometry width="100" height="100" relative="1" as="geometry">
                        <mxPoint x="-810" y="970" as="sourcePoint"/>
                        <mxPoint x="-513" y="1030" as="targetPoint"/>
                    </mxGeometry>
                </mxCell>
            </root>
        </mxGraphModel>
    </diagram>
</mxfile>